PathFileType	4	(X/Y/Z)	C:\Users\86182\Documents\cortex\Trimmed_M1_H6.trc
DataRate	CameraRate	NumFrames	NumMarkers	Units	OrigDataRate	OrigDataStartFrame	OrigNumFrames
100.00	100.00	       155	2	mm	100.00	191	       951
Frame#	Time	gripper			box			
		X1	Y1	Z1	X2	Y2	Z2	

191	1.900	221.94806	203.43707	228.81570	229.13873	202.32251	77.61117	
192	1.910	221.67444	203.43590	229.57993	228.75822	202.20728	78.35851	
193	1.920	221.59550	203.49341	229.97363	228.56320	202.29089	78.68630	
194	1.930	221.71826	203.56200	230.31021	228.82413	202.39299	78.68207	
195	1.940	222.29688	203.55476	230.59843	229.28148	202.35326	79.31252	
196	1.950	221.96266	203.51128	231.08136	228.83083	202.26357	80.23429	
197	1.960	222.05322	203.52785	231.71742	228.87537	202.44243	80.60947	
198	1.970	221.70996	203.65436	232.35129	229.02623	202.47969	80.73644	
199	1.980	221.62263	203.58878	232.71573	229.15199	202.44083	81.26505	
200	1.990	221.83965	203.62305	233.11208	228.70718	202.35806	81.89552	
201	2.000	222.21826	203.58954	233.39326	229.16252	202.46719	82.14224	
202	2.010	222.18965	203.66069	234.01132	229.07811	202.56030	82.59892	
203	2.020	221.78485	203.57651	234.48338	229.31682	202.53372	83.18466	
204	2.030	221.68539	203.68349	234.87589	228.99731	202.35051	83.53857	
205	2.040	221.78693	203.72343	235.09229	229.18752	202.41782	83.58184	
206	2.050	221.61583	203.62479	235.63026	228.74287	202.54723	83.99976	
207	2.060	222.14661	203.57736	235.87213	229.04979	202.35106	84.68208	
208	2.070	222.20169	203.68755	236.45007	228.92168	202.48692	85.30843	
209	2.080	221.78223	203.68610	237.04744	229.12688	202.51414	85.57308	
210	2.090	221.74771	203.61752	237.34413	229.31126	202.47923	85.58450	
211	2.100	221.78801	203.62395	237.65799	229.06287	202.40623	86.22346	
212	2.110	221.99893	203.70578	238.08427	228.91243	202.49217	86.82982	
213	2.120	221.97209	203.69807	238.84372	229.17168	202.56955	87.34700	
214	2.130	222.00798	203.73610	239.12798	229.01138	202.50769	87.73972	
215	2.140	222.16193	203.72733	239.40292	229.37393	202.43059	88.10545	
216	2.150	222.02943	203.64679	239.95387	229.56351	202.48570	88.45162	
217	2.160	222.07385	203.65030	240.37920	229.25482	202.63841	88.82590	
218	2.170	222.40303	203.74371	240.89775	229.24583	202.36136	89.29977	
219	2.180	222.18681	203.72960	241.40080	229.06995	202.48871	90.27660	
220	2.190	222.17520	203.64185	241.76361	229.36969	202.54266	90.45491	
221	2.200	222.12321	203.67999	242.00363	229.96288	202.62254	90.41433	
222	2.210	221.96104	203.80440	242.47966	229.19940	202.43939	91.01227	
223	2.220	221.81859	203.75514	243.13889	229.06340	202.46777	91.48219	
224	2.230	222.21964	203.67369	243.53909	229.09091	202.57878	92.08507	
225	2.240	222.30942	203.69611	243.69893	229.48404	202.58366	92.26614	
226	2.250	222.60828	203.75565	243.98088	229.39458	202.50114	92.82774	
227	2.260	221.88251	203.69278	244.76849	229.64864	202.40314	93.06611	
228	2.270	221.75198	203.76976	244.96696	229.43408	202.45663	93.54074	
229	2.280	221.85127	203.78755	245.50276	229.09816	202.41154	93.97533	
230	2.290	222.66173	203.77280	245.86403	228.95984	202.45982	94.55564	
231	2.300	222.55501	203.64001	246.29868	229.15343	202.46587	95.08477	
232	2.310	221.76318	203.74980	246.88184	229.46773	202.54845	95.43204	
233	2.320	222.08017	203.83510	247.16011	228.92128	202.50084	95.90641	
234	2.330	222.03432	203.77844	247.95534	229.42033	202.52037	96.13363	
235	2.340	222.53279	203.79630	248.03230	228.67877	202.58751	96.79971	
236	2.350	222.63268	203.75471	248.31818	228.81079	202.67551	97.53121	
237	2.360	222.33408	203.88969	249.02858	229.04802	202.57249	97.74158	
238	2.370	222.04858	203.84355	249.51561	229.00279	202.59419	98.20982	
239	2.380	222.27110	203.82364	249.96870	228.68759	202.64229	98.79417	
240	2.390	222.33354	203.93378	250.40851	228.56104	202.71217	99.19678	
241	2.400	222.70419	203.69270	250.84390	228.68915	202.70335	99.50298	
242	2.410	222.08025	203.72592	251.28514	228.96968	202.68561	100.06813	
243	2.420	222.09784	203.77538	251.49890	228.28284	202.80194	100.63570	
244	2.430	221.96840	203.88693	252.25169	228.72081	202.60893	100.94852	
245	2.440	221.94461	203.78093	252.70636	228.60938	202.66446	101.23030	
246	2.450	222.04143	203.71272	252.94214	228.47540	202.59935	101.72464	
247	2.460	221.86995	203.71315	253.46362	228.56361	202.60394	102.06374	
248	2.470	222.08057	203.67136	253.98695	227.67502	202.67418	103.25684	
249	2.480	221.66475	203.70876	254.42328	227.63728	202.64914	103.32273	
250	2.490	222.02472	203.73088	254.71230	228.87332	202.61143	103.33845	
251	2.500	221.66093	203.55249	255.22787	228.38446	202.60379	103.85232	
252	2.510	221.75215	203.71587	255.84010	228.53922	202.53688	104.37882	
253	2.520	221.45685	203.73816	256.16290	227.65378	202.67693	105.30213	
254	2.530	221.77464	203.66841	256.51257	228.05344	202.78059	105.54885	
255	2.540	222.16786	203.70247	257.26434	228.39586	202.52946	105.91735	
256	2.550	222.19054	203.71214	257.35608	228.50958	202.62700	106.21873	
257	2.560	221.35097	203.72951	257.96237	228.21512	202.70039	106.69973	
258	2.570	221.61919	203.72070	258.64767	228.14447	202.77490	107.15488	
259	2.580	221.89014	203.79111	258.87332	227.97652	202.68352	107.97126	
260	2.590	221.51375	203.89639	259.36362	228.21252	202.75427	108.13911	
261	2.600	221.05267	203.62610	259.91620	228.00995	202.76712	108.63394	
262	2.610	221.54643	203.84247	260.40225	227.60452	202.81775	109.03303	
263	2.620	221.14375	203.96738	260.79224	227.71295	202.69527	109.59774	
264	2.630	221.09383	203.79787	261.00839	227.66673	202.80960	110.09049	
265	2.640	220.87692	203.68654	261.64246	227.75121	202.50682	110.52100	
266	2.650	221.04849	203.82246	262.11603	227.96051	202.57870	110.60973	
267	2.660	220.70067	203.87396	262.57220	227.12941	202.70190	111.49037	
268	2.670	220.24602	203.71599	263.06824	227.39882	202.62846	111.72798	
269	2.680	220.58620	203.62639	263.39545	227.27184	202.42337	112.20293	
270	2.690	220.81024	203.71877	263.83145	227.36293	202.62025	112.56787	
271	2.700	220.40559	203.81329	264.31830	227.15984	202.62724	113.32326	
272	2.710	220.60562	203.67792	264.73398	227.26802	202.53273	113.53658	
273	2.720	220.62794	203.80472	265.20978	227.24457	202.51387	114.03688	
274	2.730	220.85033	203.79778	265.44705	227.27161	202.70824	114.22189	
275	2.740	220.92955	203.68286	266.04172	227.77484	202.56096	114.71460	
276	2.750	220.84380	203.73724	266.55389	227.48413	202.44875	115.53374	
277	2.760	220.86542	203.76604	267.00653	227.36137	202.47954	115.70181	
278	2.770	220.73332	203.81969	267.31473	227.28308	202.69878	116.16464	
279	2.780	220.89604	203.72667	267.66840	227.03293	202.67444	116.85938	
280	2.790	220.94562	203.77921	268.28763	226.98549	202.57986	117.26912	
281	2.800	220.83937	203.82642	268.76682	227.08261	202.59747	117.53477	
282	2.810	220.85672	203.82437	269.22107	227.65863	202.70898	118.04449	
283	2.820	220.79185	203.78436	269.61050	227.27379	202.68393	118.58179	
284	2.830	220.83809	203.77768	270.00644	226.79877	202.69861	119.20230	
285	2.840	220.98814	203.76718	270.25360	226.98257	202.67928	119.16938	
286	2.850	220.98883	203.86229	270.83572	227.49677	202.73506	119.57767	
287	2.860	220.80713	203.87997	271.39279	227.22705	202.70842	120.27673	
288	2.870	220.47221	203.87416	271.71432	227.62897	202.65540	120.63788	
289	2.880	220.63913	203.88521	272.15134	226.86206	202.78854	121.11608	
290	2.890	221.02798	203.82831	272.40732	226.78891	202.70068	121.54241	
291	2.900	221.14459	203.84166	273.03613	227.38449	202.74626	121.79708	
292	2.910	220.81804	203.94363	273.56891	227.37250	202.75946	122.36056	
293	2.920	220.54535	203.97583	273.92261	227.44768	202.75877	122.42947	
294	2.930	220.67969	203.87900	274.27795	227.37880	202.62151	123.15569	
295	2.940	221.29352	203.86063	274.52484	227.11993	202.77075	123.92500	
296	2.950	221.40865	203.90997	275.13840	227.58798	202.79681	123.93314	
297	2.960	221.12086	203.88271	275.60739	227.37918	202.68599	124.12096	
298	2.970	220.70473	203.95760	276.17697	227.59459	202.76738	124.86050	
299	2.980	220.93245	203.90495	276.39117	227.57347	202.78262	125.53862	
300	2.990	221.43121	203.87074	276.77194	227.47733	202.90857	125.87065	
301	3.000	221.33325	203.82623	277.37726	227.26468	202.78525	126.14107	
302	3.010	221.12169	204.00125	277.88989	227.86067	202.82791	126.42966	
303	3.020	221.16344	204.08092	278.25317	227.81627	202.81346	127.07650	
304	3.030	220.84390	203.93193	278.66550	228.01160	202.85387	127.22005	
305	3.040	221.33719	203.91202	278.93686	227.38069	202.85684	127.92845	
306	3.050	221.57678	203.92430	279.32095	227.38753	202.77679	128.45454	
307	3.060	221.18614	204.01570	280.07034	227.72459	202.88734	128.68207	
308	3.070	221.05127	203.93245	280.52469	228.05942	202.84598	128.78844	
309	3.080	221.08206	203.94829	280.62073	227.79784	202.75989	129.31770	
310	3.090	221.25056	204.03223	280.86719	227.44609	202.71396	129.92857	
311	3.100	221.39891	203.91335	281.34982	227.31036	202.85986	130.65785	
312	3.110	221.17152	203.94817	282.07208	227.93968	202.95044	130.73105	
313	3.120	221.21092	203.98837	282.43372	227.71552	202.83455	130.91086	
314	3.130	221.36891	203.98906	282.72531	227.89259	202.69890	131.24684	
315	3.140	221.21974	203.92313	283.11688	227.69438	202.71513	131.89886	
316	3.150	221.08630	203.96832	283.46710	227.37488	202.81245	132.41768	
317	3.160	221.05803	203.92061	283.83731	227.41101	202.84753	132.95699	
318	3.170	221.06911	204.10350	284.48203	227.27576	202.75447	133.24951	
319	3.180	221.44373	204.00443	284.68188	227.59456	202.69290	133.46741	
320	3.190	221.54422	203.97797	284.97235	227.62183	202.67528	133.70282	
321	3.200	221.53691	203.97607	285.07120	227.95818	202.66054	133.90837	
322	3.210	221.30249	203.97092	285.29001	228.06430	202.81548	134.12238	
323	3.220	221.47084	204.06454	285.67722	227.52992	202.80844	134.75691	
324	3.230	221.47279	204.06673	285.97183	227.54471	202.81041	134.95499	
325	3.240	221.39767	204.01195	286.37695	227.60463	202.84509	135.43745	
326	3.250	221.26840	204.10236	286.66766	227.43646	202.75085	135.63248	
327	3.260	221.25299	204.09532	286.69080	227.57687	202.81369	135.59839	
328	3.270	221.67587	204.01805	286.80191	228.00888	202.88448	135.55087	
329	3.280	221.70285	204.03133	286.82068	228.13547	202.86458	135.71931	
330	3.290	221.89702	204.04639	286.88947	228.15128	202.87038	135.72588	
331	3.300	222.01056	204.10248	286.97620	228.15128	202.87038	135.72588	
332	3.310	221.97751	204.08765	287.03613	228.15128	202.87038	135.72588	
333	3.320	221.94273	204.07301	287.15085	228.12556	202.85365	135.77513	
334	3.330	221.93666	204.07039	287.16617	228.10699	202.83290	135.88251	
335	3.340	221.93401	204.06920	287.17139	228.10699	202.83290	135.88251	
336	3.350	221.92702	204.06737	287.25146	228.10699	202.83290	135.88251	
337	3.360	221.92702	204.06737	287.25146	228.14046	202.84659	135.88515	
338	3.370	221.93686	204.07231	287.26288	228.12039	202.83374	135.92210	
339	3.380	221.94347	204.07565	287.27054	228.09378	202.81819	135.95874	
340	3.390	221.94347	204.07565	287.27054	228.09668	202.82138	135.94232	
341	3.400	221.94347	204.07565	287.27054	228.14915	202.84703	135.91162	
342	3.410	221.94347	204.07565	287.27054	228.12294	202.83203	135.94508	
343	3.420	221.94347	204.07565	287.27054	228.10832	202.82509	135.95193	
344	3.430	221.94347	204.07565	287.27054	228.09497	202.81947	135.95219	
345	3.440	221.94012	204.07396	287.26672	228.09605	202.82071	135.94565	
